<svg width="56" height="71" viewBox="0 0 56 71" fill="none" xmlns="http://www.w3.org/2000/svg">
<path d="M42.54 6.24961L48.6806 27.0486L37.0234 19.489L42.54 6.24961ZM22.7316 17.0025L36.3669 19.7702L27.1972 42.225L22.7316 17.0025ZM48.6655 27.6347L27.656 42.4241L36.8297 19.9593L48.6655 27.6347ZM36.5607 19.2994L23.1354 16.5742L42.0731 6.07022L36.5607 19.2994Z" fill="#805EAB" stroke="white" stroke-width="0.5"/>
<path d="M13.8431 27.5146L32.6372 38.3353L18.9829 40.9047L13.8431 27.5146ZM19.1672 41.3788L33.0305 38.7701L28.0239 63.9705L19.1672 41.3788ZM13.3813 27.7068L18.5172 41.0866L6.9182 48.3756L13.3813 27.7068ZM27.5544 64.1428L6.92129 48.9642L18.7017 41.5612L27.5544 64.1428Z" fill="#71D5D1" stroke="white" stroke-width="0.5"/>
</svg>
