<svg width="22" height="22" viewBox="0 0 22 22" fill="none" xmlns="http://www.w3.org/2000/svg">
<path d="M10.875 4.875C9.68831 4.875 8.52827 5.22689 7.54158 5.88618C6.55488 6.54547 5.78585 7.48254 5.33172 8.5789C4.8776 9.67526 4.75878 10.8817 4.99029 12.0455C5.2218 13.2094 5.79324 14.2785 6.63236 15.1176C7.47147 15.9568 8.54057 16.5282 9.70446 16.7597C10.8683 16.9912 12.0747 16.8724 13.1711 16.4183C14.2675 15.9642 15.2045 15.1951 15.8638 14.2084C16.5231 13.2217 16.875 12.0617 16.875 10.875C16.8725 9.28446 16.2396 7.75978 15.1149 6.6351C13.9902 5.51042 12.4655 4.87748 10.875 4.875ZM10.875 16.125C9.83665 16.125 8.82161 15.8171 7.95826 15.2402C7.0949 14.6633 6.42199 13.8434 6.02463 12.8841C5.62727 11.9248 5.5233 10.8692 5.72588 9.85078C5.92845 8.83238 6.42846 7.89692 7.16269 7.16269C7.89692 6.42846 8.83238 5.92845 9.85078 5.72588C10.8692 5.5233 11.9248 5.62727 12.8841 6.02463C13.8434 6.42199 14.6633 7.0949 15.2402 7.95826C15.8171 8.82161 16.125 9.83665 16.125 10.875C16.125 12.2674 15.5719 13.6027 14.5873 14.5873C13.6027 15.5719 12.2674 16.125 10.875 16.125ZM10.5 2.25V0.375C10.5 0.275544 10.5395 0.180161 10.6098 0.109835C10.6802 0.0395088 10.7755 0 10.875 0C10.9745 0 11.0698 0.0395088 11.1402 0.109835C11.2105 0.180161 11.25 0.275544 11.25 0.375V2.25C11.25 2.34946 11.2105 2.44484 11.1402 2.51516C11.0698 2.58549 10.9745 2.625 10.875 2.625C10.7755 2.625 10.6802 2.58549 10.6098 2.51516C10.5395 2.44484 10.5 2.34946 10.5 2.25ZM3.1875 3.7125C3.14452 3.68026 3.10897 3.63917 3.08325 3.592C3.05753 3.54482 3.04225 3.49268 3.03844 3.43908C3.03463 3.38549 3.04239 3.33171 3.06117 3.28137C3.07996 3.23104 3.10934 3.18533 3.14733 3.14733C3.18533 3.10934 3.23104 3.07996 3.28137 3.06117C3.33171 3.04239 3.38549 3.03463 3.43908 3.03844C3.49268 3.04225 3.54482 3.05753 3.592 3.08325C3.63917 3.10897 3.68026 3.14452 3.7125 3.1875L5.04375 4.50937C5.11096 4.58212 5.14828 4.67752 5.14828 4.77656C5.14828 4.8756 5.11096 4.971 5.04375 5.04375C5.0079 5.07862 4.96527 5.10576 4.91851 5.1235C4.87174 5.14124 4.82184 5.1492 4.77188 5.14688C4.72341 5.14846 4.67512 5.14013 4.62999 5.12239C4.58485 5.10466 4.54381 5.0779 4.50937 5.04375L3.1875 3.7125ZM2.625 10.875C2.625 10.9745 2.58549 11.0698 2.51516 11.1402C2.44484 11.2105 2.34946 11.25 2.25 11.25H0.375C0.275544 11.25 0.180161 11.2105 0.109835 11.1402C0.0395088 11.0698 0 10.9745 0 10.875C0 10.7755 0.0395088 10.6802 0.109835 10.6098C0.180161 10.5395 0.275544 10.5 0.375 10.5H2.25C2.34946 10.5 2.44484 10.5395 2.51516 10.6098C2.58549 10.6802 2.625 10.7755 2.625 10.875ZM5.04375 16.7062C5.11096 16.779 5.14828 16.8744 5.14828 16.9734C5.14828 17.0725 5.11096 17.1679 5.04375 17.2406L3.7125 18.5625C3.67887 18.5983 3.63819 18.6268 3.59302 18.6462C3.54784 18.6656 3.49915 18.6754 3.45 18.675C3.40094 18.6748 3.35241 18.6648 3.30731 18.6454C3.26221 18.6261 3.22147 18.5979 3.1875 18.5625C3.15235 18.5284 3.1244 18.4876 3.10531 18.4425C3.08622 18.3974 3.07639 18.349 3.07639 18.3C3.07639 18.251 3.08622 18.2026 3.10531 18.1575C3.1244 18.1124 3.15235 18.0716 3.1875 18.0375L4.50937 16.7062C4.58212 16.639 4.67752 16.6017 4.77656 16.6017C4.8756 16.6017 4.971 16.639 5.04375 16.7062ZM11.25 19.5V21.375C11.25 21.4745 11.2105 21.5698 11.1402 21.6402C11.0698 21.7105 10.9745 21.75 10.875 21.75C10.7755 21.75 10.6802 21.7105 10.6098 21.6402C10.5395 21.5698 10.5 21.4745 10.5 21.375V19.5C10.5 19.4005 10.5395 19.3052 10.6098 19.2348C10.6802 19.1645 10.7755 19.125 10.875 19.125C10.9745 19.125 11.0698 19.1645 11.1402 19.2348C11.2105 19.3052 11.25 19.4005 11.25 19.5ZM18.5625 18.0375C18.5977 18.0716 18.6256 18.1124 18.6447 18.1575C18.6638 18.2026 18.6736 18.251 18.6736 18.3C18.6736 18.349 18.6638 18.3974 18.6447 18.4425C18.6256 18.4876 18.5977 18.5284 18.5625 18.5625C18.5285 18.5979 18.4878 18.6261 18.4427 18.6454C18.3976 18.6648 18.3491 18.6748 18.3 18.675C18.2509 18.6754 18.2022 18.6656 18.157 18.6462C18.1118 18.6268 18.0711 18.5983 18.0375 18.5625L16.7062 17.2406C16.6354 17.1698 16.5956 17.0737 16.5956 16.9734C16.5956 16.8732 16.6354 16.7771 16.7062 16.7062C16.7771 16.6354 16.8732 16.5956 16.9734 16.5956C17.0737 16.5956 17.1698 16.6354 17.2406 16.7062L18.5625 18.0375ZM21.75 10.875C21.75 10.9745 21.7105 11.0698 21.6402 11.1402C21.5698 11.2105 21.4745 11.25 21.375 11.25H19.5C19.4005 11.25 19.3052 11.2105 19.2348 11.1402C19.1645 11.0698 19.125 10.9745 19.125 10.875C19.125 10.7755 19.1645 10.6802 19.2348 10.6098C19.3052 10.5395 19.4005 10.5 19.5 10.5H21.375C21.4745 10.5 21.5698 10.5395 21.6402 10.6098C21.7105 10.6802 21.75 10.7755 21.75 10.875ZM18.5625 3.1875C18.5977 3.22158 18.6256 3.26238 18.6447 3.30748C18.6638 3.35257 18.6736 3.40103 18.6736 3.45C18.6736 3.49897 18.6638 3.54743 18.6447 3.59252C18.6256 3.63762 18.5977 3.67842 18.5625 3.7125L17.2406 5.04375C17.2062 5.0779 17.1652 5.10466 17.12 5.12239C17.0749 5.14013 17.0266 5.14846 16.9781 5.14688C16.9282 5.1492 16.8783 5.14124 16.8315 5.1235C16.7847 5.10576 16.7421 5.07862 16.7062 5.04375C16.639 4.971 16.6017 4.8756 16.6017 4.77656C16.6017 4.67752 16.639 4.58212 16.7062 4.50937L18.0375 3.1875C18.0716 3.15235 18.1124 3.1244 18.1575 3.10531C18.2026 3.08622 18.251 3.07639 18.3 3.07639C18.349 3.07639 18.3974 3.08622 18.4425 3.10531C18.4876 3.1244 18.5284 3.15235 18.5625 3.1875Z" fill="white"/>
</svg>
