<svg width="211" height="81" viewBox="0 0 211 81" fill="none" xmlns="http://www.w3.org/2000/svg">
<path d="M10.45 51.2C8.7 51.2 7.11667 50.8167 5.7 50.05C4.3 49.2667 3.2 48.2 2.4 46.85C1.6 45.4833 1.2 43.95 1.2 42.25C1.2 40.55 1.6 39.025 2.4 37.675C3.2 36.3083 4.30833 35.2417 5.725 34.475C7.14167 33.6917 8.725 33.3 10.475 33.3C11.8417 33.3 13.0917 33.5333 14.225 34C15.3583 34.45 16.325 35.125 17.125 36.025L15.5 37.6C14.1833 36.2167 12.5417 35.525 10.575 35.525C9.275 35.525 8.1 35.8167 7.05 36.4C6 36.9833 5.175 37.7917 4.575 38.825C3.99167 39.8417 3.7 40.9833 3.7 42.25C3.7 43.5167 3.99167 44.6667 4.575 45.7C5.175 46.7167 6 47.5167 7.05 48.1C8.1 48.6833 9.275 48.975 10.575 48.975C12.525 48.975 14.1667 48.275 15.5 46.875L17.125 48.45C16.325 49.35 15.35 50.0333 14.2 50.5C13.0667 50.9667 11.8167 51.2 10.45 51.2ZM31.4752 51.2C29.7085 51.2 28.1169 50.8167 26.7002 50.05C25.2835 49.2667 24.1669 48.1917 23.3502 46.825C22.5502 45.4583 22.1502 43.9333 22.1502 42.25C22.1502 40.5667 22.5502 39.0417 23.3502 37.675C24.1669 36.3083 25.2835 35.2417 26.7002 34.475C28.1169 33.6917 29.7085 33.3 31.4752 33.3C33.2252 33.3 34.8085 33.6917 36.2252 34.475C37.6419 35.2417 38.7502 36.3083 39.5502 37.675C40.3502 39.025 40.7502 40.55 40.7502 42.25C40.7502 43.95 40.3502 45.4833 39.5502 46.85C38.7502 48.2 37.6419 49.2667 36.2252 50.05C34.8085 50.8167 33.2252 51.2 31.4752 51.2ZM31.4752 48.975C32.7585 48.975 33.9085 48.6833 34.9252 48.1C35.9585 47.5167 36.7669 46.7167 37.3502 45.7C37.9502 44.6667 38.2502 43.5167 38.2502 42.25C38.2502 40.9833 37.9502 39.8417 37.3502 38.825C36.7669 37.7917 35.9585 36.9833 34.9252 36.4C33.9085 35.8167 32.7585 35.525 31.4752 35.525C30.1919 35.525 29.0252 35.8167 27.9752 36.4C26.9419 36.9833 26.1252 37.7917 25.5252 38.825C24.9419 39.8417 24.6502 40.9833 24.6502 42.25C24.6502 43.5167 24.9419 44.6667 25.5252 45.7C26.1252 46.7167 26.9419 47.5167 27.9752 48.1C29.0252 48.6833 30.1919 48.975 31.4752 48.975ZM55.9713 33.3C58.0713 33.3 59.713 33.9333 60.8963 35.2C62.0796 36.4667 62.6713 38.275 62.6713 40.625V51H60.1963V40.7C60.1963 39 59.7796 37.7167 58.9463 36.85C58.113 35.9667 56.9546 35.525 55.4713 35.525C53.8713 35.525 52.613 35.9917 51.6963 36.925C50.7796 37.8583 50.3213 39.2417 50.3213 41.075V51H47.8213V33.5H50.2213V35.975C51.4046 34.1917 53.3213 33.3 55.9713 33.3ZM120.034 33.3C122.051 33.3 123.626 33.8833 124.759 35.05C125.893 36.2167 126.459 37.9083 126.459 40.125V51H123.984V40.2C123.984 38.6667 123.584 37.5083 122.784 36.725C121.984 35.925 120.926 35.525 119.609 35.525C118.159 35.525 117.009 35.9417 116.159 36.775C115.326 37.5917 114.909 38.85 114.909 40.55V51H112.434V40.2C112.434 38.65 112.051 37.4833 111.284 36.7C110.534 35.9167 109.501 35.525 108.184 35.525C106.718 35.525 105.551 35.9417 104.684 36.775C103.834 37.6083 103.409 38.8667 103.409 40.55V51H100.909V33.5H103.309V36.05C103.826 35.1833 104.551 34.5083 105.484 34.025C106.434 33.5417 107.534 33.3 108.784 33.3C110.084 33.3 111.201 33.5583 112.134 34.075C113.084 34.5917 113.784 35.3083 114.234 36.225C114.784 35.2917 115.559 34.575 116.559 34.075C117.576 33.5583 118.734 33.3 120.034 33.3ZM147.848 49.175C147.098 49.8083 146.115 50.3083 144.898 50.675C143.682 51.025 142.357 51.2 140.923 51.2C139.323 51.2 137.965 50.9917 136.848 50.575C135.732 50.1417 134.89 49.55 134.323 48.8C133.757 48.05 133.473 47.1833 133.473 46.2C133.473 45.2 133.757 44.3417 134.323 43.625C134.907 42.8917 135.657 42.3667 136.573 42.05C135.84 41.7167 135.265 41.2167 134.848 40.55C134.432 39.8667 134.223 39.0833 134.223 38.2C134.223 37.2833 134.482 36.4583 134.998 35.725C135.532 34.9917 136.332 34.4083 137.398 33.975C138.465 33.525 139.765 33.3 141.298 33.3C142.382 33.3 143.432 33.4167 144.448 33.65C145.482 33.8833 146.373 34.2167 147.123 34.65L146.398 36.65C144.898 35.85 143.232 35.45 141.398 35.45C139.882 35.45 138.723 35.725 137.923 36.275C137.123 36.8083 136.723 37.5083 136.723 38.375C136.723 39.2417 137.032 39.9083 137.648 40.375C138.265 40.8417 139.148 41.075 140.298 41.075H144.798V43.225H140.198C138.882 43.225 137.848 43.4583 137.098 43.925C136.348 44.3917 135.973 45.0917 135.973 46.025C135.973 46.975 136.398 47.7167 137.248 48.25C138.098 48.7833 139.365 49.05 141.048 49.05C142.215 49.05 143.323 48.8917 144.373 48.575C145.44 48.2417 146.315 47.7917 146.998 47.225L147.848 49.175ZM165.639 37.275C163.939 36.3083 162.122 35.7333 160.189 35.55V51H157.714V35.55C155.764 35.7333 153.939 36.3083 152.239 37.275L151.364 35.3C153.597 33.9667 156.114 33.3 158.914 33.3C161.747 33.3 164.281 33.9667 166.514 35.3L165.639 37.275ZM179.386 33.3C181.719 33.3 183.561 33.9833 184.911 35.35C186.261 36.7 186.936 38.6417 186.936 41.175V51H184.436V46.175H174.336V51H171.886V41.175C171.886 38.6417 172.561 36.7 173.911 35.35C175.261 33.9833 177.086 33.3 179.386 33.3ZM184.436 44V40.95C184.436 39.1667 183.986 37.8167 183.086 36.9C182.203 35.9833 180.969 35.525 179.386 35.525C177.803 35.525 176.561 35.9833 175.661 36.9C174.778 37.8167 174.336 39.1667 174.336 40.95V44H184.436ZM200.381 51.2C199.065 51.2 197.79 51 196.556 50.6C195.34 50.1833 194.381 49.65 193.681 49L194.606 47.05C195.273 47.65 196.123 48.1417 197.156 48.525C198.206 48.8917 199.281 49.075 200.381 49.075C201.831 49.075 202.915 48.8333 203.631 48.35C204.348 47.85 204.706 47.1917 204.706 46.375C204.706 45.775 204.506 45.2917 204.106 44.925C203.723 44.5417 203.24 44.25 202.656 44.05C202.09 43.85 201.281 43.625 200.231 43.375C198.915 43.0583 197.848 42.7417 197.031 42.425C196.231 42.1083 195.54 41.625 194.956 40.975C194.39 40.3083 194.106 39.4167 194.106 38.3C194.106 37.3667 194.348 36.525 194.831 35.775C195.331 35.025 196.081 34.425 197.081 33.975C198.081 33.525 199.323 33.3 200.806 33.3C201.84 33.3 202.856 33.4333 203.856 33.7C204.856 33.9667 205.715 34.35 206.431 34.85L205.606 36.85C204.873 36.3833 204.09 36.0333 203.256 35.8C202.423 35.55 201.606 35.425 200.806 35.425C199.39 35.425 198.323 35.6833 197.606 36.2C196.906 36.7167 196.556 37.3833 196.556 38.2C196.556 38.8 196.756 39.2917 197.156 39.675C197.556 40.0417 198.048 40.3333 198.631 40.55C199.231 40.75 200.04 40.9667 201.056 41.2C202.373 41.5167 203.431 41.8333 204.231 42.15C205.031 42.4667 205.715 42.95 206.281 43.6C206.865 44.25 207.156 45.125 207.156 46.225C207.156 47.1417 206.906 47.9833 206.406 48.75C205.906 49.5 205.148 50.1 204.131 50.55C203.115 50.9833 201.865 51.2 200.381 51.2Z" fill="black"/>
<path d="M100.54 6.24961L106.681 27.0486L95.0235 19.489L100.54 6.24961ZM80.7316 17.0025L94.3669 19.7702L85.1973 42.225L80.7316 17.0025ZM106.666 27.6347L85.656 42.4241L94.8298 19.9593L106.666 27.6347ZM94.5608 19.2994L81.1355 16.5742L100.073 6.07022L94.5608 19.2994Z" fill="#805EAB" stroke="white" stroke-width="0.5"/>
<path d="M94.5936 76.0498C94.724 76.0954 94.8666 76.0267 94.9122 75.8964C94.9578 75.7661 94.8891 75.6235 94.7588 75.5779L94.5936 76.0498ZM90.0316 69.212L90.2741 69.2726L90.0316 69.212ZM85.2111 64.1163C85.366 64.8392 85.8256 65.3276 86.3727 65.7002C86.9101 66.0661 87.5697 66.3433 88.1395 66.6188C88.7282 66.9035 89.2262 67.1877 89.5361 67.5728C89.8298 67.9378 89.9725 68.4175 89.789 69.1513L90.2741 69.2726C90.4906 68.4066 90.3296 67.7614 89.9256 67.2594C89.5378 66.7775 88.9441 66.4525 88.3572 66.1687C87.7513 65.8757 87.151 65.6252 86.6542 65.2869C86.1671 64.9552 85.8182 64.563 85.7 64.0116L85.2111 64.1163ZM89.789 69.1513C89.1839 71.5717 90.4242 73.3123 91.7656 74.4216C92.4368 74.9766 93.1423 75.3826 93.6781 75.6496C93.9466 75.7833 94.1737 75.8827 94.3344 75.949C94.4148 75.9821 94.4787 76.007 94.5229 76.0238C94.545 76.0321 94.5622 76.0385 94.5742 76.0428C94.5801 76.045 94.5847 76.0466 94.588 76.0478C94.5896 76.0484 94.5909 76.0488 94.5919 76.0492C94.5923 76.0493 94.5927 76.0495 94.593 76.0496C94.5932 76.0496 94.5933 76.0497 94.5934 76.0497C94.5935 76.0498 94.5936 76.0498 94.6762 75.8138C94.7588 75.5779 94.7589 75.5779 94.7589 75.5779C94.7589 75.5779 94.7589 75.5779 94.7589 75.5779C94.7588 75.5779 94.7587 75.5778 94.7585 75.5777C94.758 75.5776 94.7572 75.5773 94.756 75.5769C94.7537 75.5761 94.7501 75.5748 94.7451 75.573C94.7352 75.5693 94.7201 75.5638 94.7 75.5562C94.66 75.541 94.6007 75.5179 94.525 75.4867C94.3736 75.4243 94.1575 75.3297 93.9011 75.202C93.3873 74.9461 92.7172 74.5597 92.0842 74.0362C90.8172 72.9885 89.7352 71.4282 90.2741 69.2726L89.789 69.1513Z" fill="#727272"/>
<path d="M67.3755 69.3241C67.3137 69.4476 67.1636 69.4977 67.0401 69.436C66.9166 69.3742 66.8665 69.224 66.9283 69.1005L67.3755 69.3241ZM74.0159 61.2043L74.2641 61.2341L74.0159 61.2043ZM88.5604 40.6647C88.2115 42.2929 87.1935 43.7278 85.8804 45.1204C84.5708 46.5094 82.9283 47.8946 81.3184 49.3925C78.0801 52.4056 74.8983 55.9401 74.2641 61.2341L73.7677 61.1746C74.4241 55.6941 77.7233 52.0546 80.9778 49.0264C82.6144 47.5037 84.2213 46.1513 85.5167 44.7774C86.8086 43.4071 87.7513 42.0538 88.0715 40.5599L88.5604 40.6647ZM74.2641 61.2341C74.1172 62.4605 73.7826 63.2516 73.2951 63.8273C72.8131 64.3965 72.199 64.7318 71.56 65.0744C70.9145 65.4205 70.2241 65.7829 69.5158 66.4071C68.8095 67.0295 68.0776 67.9199 67.3755 69.3241L66.9283 69.1005C67.6561 67.6448 68.4258 66.7011 69.1852 66.0319C69.9427 65.3645 70.6823 64.9777 71.3238 64.6337C71.9718 64.2862 72.5017 63.9905 72.9135 63.5042C73.3197 63.0245 73.6286 62.3358 73.7677 61.1746L74.2641 61.2341Z" fill="#727272"/>
<path d="M71.8431 27.5148L90.6372 38.3355L76.9829 40.9049L71.8431 27.5148ZM77.1672 41.379L91.0305 38.7703L86.0239 63.9707L77.1672 41.379ZM71.3813 27.707L76.5172 41.0868L64.9182 48.3758L71.3813 27.707ZM85.5544 64.143L64.9213 48.9644L76.7017 41.5614L85.5544 64.143Z" fill="#71D5D1" stroke="white" stroke-width="0.5"/>
<path d="M95.2954 75.9567L98.8078 76.9394L96.2005 79.4899L95.2954 75.9567Z" fill="#80DED9"/>
<path d="M66.9755 69.5477L66.5235 73.1669L63.6152 70.9658L66.9755 69.5477Z" fill="#805EAB"/>
</svg>
