<svg width="40" height="40" viewBox="0 0 40 40" fill="none" xmlns="http://www.w3.org/2000/svg">
<path d="M33.125 20V32.5C33.125 32.9973 32.9275 33.4742 32.5758 33.8258C32.2242 34.1775 31.7473 34.375 31.25 34.375H7.5C7.00272 34.375 6.52581 34.1775 6.17417 33.8258C5.82254 33.4742 5.625 32.9973 5.625 32.5V8.75C5.625 8.25272 5.82254 7.77581 6.17417 7.42417C6.52581 7.07254 7.00272 6.875 7.5 6.875H20C20.1658 6.875 20.3247 6.94085 20.4419 7.05806C20.5592 7.17527 20.625 7.33424 20.625 7.5C20.625 7.66576 20.5592 7.82473 20.4419 7.94194C20.3247 8.05915 20.1658 8.125 20 8.125H7.5C7.33424 8.125 7.17527 8.19085 7.05806 8.30806C6.94085 8.42527 6.875 8.58424 6.875 8.75V32.5C6.875 32.6658 6.94085 32.8247 7.05806 32.9419C7.17527 33.0592 7.33424 33.125 7.5 33.125H31.25C31.4158 33.125 31.5747 33.0592 31.6919 32.9419C31.8092 32.8247 31.875 32.6658 31.875 32.5V20C31.875 19.8342 31.9408 19.6753 32.0581 19.5581C32.1753 19.4408 32.3342 19.375 32.5 19.375C32.6658 19.375 32.8247 19.4408 32.9419 19.5581C33.0592 19.6753 33.125 19.8342 33.125 20ZM35.625 9.375C35.625 10.3639 35.3318 11.3306 34.7823 12.1529C34.2329 12.9751 33.452 13.616 32.5384 13.9944C31.6248 14.3728 30.6195 14.4719 29.6495 14.2789C28.6796 14.086 27.7887 13.6098 27.0895 12.9105C26.3902 12.2113 25.914 11.3204 25.7211 10.3505C25.5281 9.38055 25.6272 8.37521 26.0056 7.46158C26.384 6.54795 27.0249 5.76706 27.8471 5.21765C28.6694 4.66824 29.6361 4.375 30.625 4.375C31.9498 4.37912 33.2192 4.90723 34.156 5.84402C35.0928 6.78081 35.6209 8.05019 35.625 9.375ZM34.375 9.375C34.375 8.63332 34.1551 7.9083 33.743 7.29161C33.331 6.67493 32.7453 6.19428 32.0601 5.91045C31.3748 5.62662 30.6208 5.55236 29.8934 5.69706C29.166 5.84175 28.4978 6.1989 27.9733 6.72335C27.4489 7.2478 27.0917 7.91598 26.9471 8.64341C26.8024 9.37084 26.8766 10.1248 27.1605 10.8101C27.4443 11.4953 27.9249 12.081 28.5416 12.493C29.1583 12.9051 29.8833 13.125 30.625 13.125C31.6183 13.1209 32.5697 12.7245 33.2721 12.0221C33.9745 11.3197 34.3709 10.3683 34.375 9.375Z" fill="#805EAB"/>
</svg>
