<svg width="12" height="16" viewBox="0 0 12 16" fill="none" xmlns="http://www.w3.org/2000/svg">
<path d="M9.14286 15.7037C9.14286 15.7823 9.11276 15.8577 9.05918 15.9132C9.0056 15.9688 8.93293 16 8.85715 16H3.1429C3.06712 16 2.99445 15.9688 2.94087 15.9132C2.88729 15.8577 2.85718 15.7823 2.85718 15.7037C2.85718 15.6252 2.88729 15.5498 2.94087 15.4942C2.99445 15.4387 3.06712 15.4075 3.1429 15.4075H8.85715C8.93293 15.4075 9.0056 15.4387 9.05918 15.4942C9.11276 15.5498 9.14286 15.6252 9.14286 15.7037ZM12 6.2233C12.0016 7.16634 11.796 8.09737 11.3987 8.94567C11.0014 9.79397 10.4229 10.5373 9.70715 11.1191C9.5324 11.2574 9.39065 11.4356 9.29281 11.6398C9.19498 11.844 9.14367 12.0687 9.14286 12.2967V12.7411C9.14286 12.9768 9.05256 13.2029 8.89181 13.3696C8.73107 13.5363 8.51305 13.6299 8.28573 13.6299H3.71432C3.487 13.6299 3.26898 13.5363 3.10823 13.3696C2.94749 13.2029 2.85718 12.9768 2.85718 12.7411V12.2967C2.8583 12.0702 2.80853 11.8465 2.71183 11.6434C2.61512 11.4403 2.47414 11.2633 2.30005 11.1265C1.58638 10.5489 1.00854 9.81075 0.610119 8.96779C0.211697 8.12484 0.00309715 7.19908 5.81117e-05 6.26033C-0.0142275 2.89033 2.60719 0.0832364 5.85717 0.00176385C6.65703 -0.0179895 7.45263 0.128341 8.19715 0.432147C8.94167 0.735952 9.62007 1.1911 10.1924 1.7708C10.7648 2.3505 11.2196 3.04305 11.53 3.8077C11.8404 4.57235 12.0002 5.39366 12 6.2233ZM11.4286 6.2233C11.4288 5.47273 11.2842 4.72971 11.0034 4.03793C10.7226 3.34615 10.3112 2.71959 9.7934 2.1951C9.27561 1.67062 8.66191 1.25881 7.98837 0.983894C7.31484 0.70898 6.59509 0.576515 5.87145 0.594291C2.92861 0.668357 0.557198 3.20882 0.571483 6.25293C0.574556 7.10332 0.763895 7.94187 1.12521 8.70529C1.48652 9.46871 2.01036 10.1371 2.65719 10.6598C2.89825 10.853 3.09322 11.1012 3.22699 11.385C3.36076 11.6688 3.42974 11.9808 3.42861 12.2967V12.7411C3.42861 12.8197 3.45871 12.895 3.51229 12.9506C3.56587 13.0062 3.63855 13.0374 3.71432 13.0374H8.28573C8.3615 13.0374 8.43417 13.0062 8.48776 12.9506C8.54134 12.895 8.57144 12.8197 8.57144 12.7411V12.2967C8.57167 11.9792 8.64194 11.666 8.77689 11.381C8.91184 11.096 9.10788 10.8468 9.35001 10.6524C9.99957 10.1277 10.5246 9.45571 10.8849 8.68797C11.2452 7.92022 11.4312 7.07712 11.4286 6.2233ZM6.62859 2.43113C6.59154 2.42477 6.55364 2.42606 6.51706 2.43491C6.48049 2.44375 6.44595 2.45999 6.41544 2.48269C6.38492 2.5054 6.35902 2.53411 6.33921 2.5672C6.31941 2.6003 6.30609 2.63711 6.30002 2.67554C6.29288 2.71407 6.29338 2.75371 6.3015 2.79203C6.30962 2.83036 6.32518 2.86656 6.34724 2.89844C6.36929 2.93033 6.39738 2.95721 6.42979 2.97747C6.4622 2.99772 6.49825 3.01092 6.53574 3.01625C7.17612 3.12942 7.76681 3.44605 8.22616 3.92236C8.68551 4.39868 8.99086 5.01117 9.10001 5.67521C9.11031 5.74389 9.14416 5.80641 9.19532 5.8513C9.24649 5.8962 9.31155 5.92046 9.37858 5.91963H9.42858C9.46564 5.91334 9.50114 5.89953 9.53306 5.87899C9.56497 5.85846 9.59266 5.8316 9.61456 5.79995C9.63645 5.76831 9.65211 5.7325 9.66065 5.69457C9.66918 5.65665 9.67042 5.61735 9.66429 5.57893C9.53479 4.79294 9.17321 4.068 8.62946 3.50417C8.08571 2.94034 7.38659 2.56541 6.62859 2.43113Z" fill="white"/>
</svg>
